<svg xmlns="http://www.w3.org/2000/svg" xmlns:xlink="http://www.w3.org/1999/xlink" width="16" height="16" viewBox="0 0 16 16"><filter id="a" width="100%" height="100%" x="0%" y="0%"><feColorMatrix in="SourceGraphic" type="matrix" values="0 0 0 0 1 0 0 0 0 1 0 0 0 0 1 0 0 0 1 0"/></filter><mask id="b"><g filter="url(#a)"><path fill-opacity=".3" d="m 0 0 h 16 v 16 h -16 z"/></g></mask><clipPath id="c"><path d="m 0 0 h 800 v 800 h -800 z"/></clipPath><mask id="d"><g filter="url(#a)"><path fill-opacity=".35" d="m 0 0 h 16 v 16 h -16 z"/></g></mask><clipPath id="e"><path d="m 0 0 h 800 v 800 h -800 z"/></clipPath><mask id="f"><g filter="url(#a)"><path fill-opacity=".35" d="m 0 0 h 16 v 16 h -16 z"/></g></mask><clipPath id="g"><path d="m 0 0 h 800 v 800 h -800 z"/></clipPath><mask id="h"><g filter="url(#a)"><path fill-opacity=".35" d="m 0 0 h 16 v 16 h -16 z"/></g></mask><clipPath id="i"><path d="m 0 0 h 800 v 800 h -800 z"/></clipPath><mask id="j"><g filter="url(#a)"><path fill-opacity=".35" d="m 0 0 h 16 v 16 h -16 z"/></g></mask><clipPath id="k"><path d="m 0 0 h 800 v 800 h -800 z"/></clipPath><g clip-path="url(#c)" mask="url(#b)" transform="matrix(1 0 0 1 -140 -480)"><path fill="#2e3436" d="m 142.5 351 h 10.449219 c -1.183594 0.492188 -1.296875 2.457031 0 3 h -10.449219 z m 0 0"/></g><g clip-path="url(#e)" mask="url(#d)" transform="matrix(1 0 0 1 -140 -480)"><path fill="#2e3436" d="m 104 502 c 0 0.550781 -0.449219 1 -1 1 s -1 -0.449219 -1 -1 s 0.449219 -1 1 -1 s 1 0.449219 1 1 z m 0 0"/></g><g clip-path="url(#g)" mask="url(#f)" transform="matrix(1 0 0 1 -140 -480)"><path fill="#2e3436" fill-rule="evenodd" d="m 106 501 v 2 h 8 v -2 z m 0 0"/></g><g clip-path="url(#i)" mask="url(#h)" transform="matrix(1 0 0 1 -140 -480)"><path fill="#2e3436" d="m 104 514 c 0 0.550781 -0.449219 1 -1 1 s -1 -0.449219 -1 -1 s 0.449219 -1 1 -1 s 1 0.449219 1 1 z m 0 0"/></g><g clip-path="url(#k)" mask="url(#j)" transform="matrix(1 0 0 1 -140 -480)"><path fill="#2e3436" fill-rule="evenodd" d="m 106 513 v 2 h 8 v -2 z m 0 0"/></g><path fill="#2e3436" d="m 15 3 c 0 -1.089844 -0.910156 -2 -2 -2 h -10 c -1.089844 0 -2 0.910156 -2 2 v 10 c 0 1.089844 0.910156 2 2 2 h 10 c 1.089844 0 2 -0.910156 2 -2 z m -2 0 v 10 h -10 v -10 z m 0 0"/><path fill="none" stroke="#2e3436" stroke-linecap="square" stroke-linejoin="round" stroke-width="2" d="m 107 113 v -10" transform="matrix(0 1 -1 0 116 -102)"/></svg>