<svg xmlns="http://www.w3.org/2000/svg" xmlns:svg="http://www.w3.org/2000/svg" id="svg71" width="16" height="16" version="1.1" viewBox="0 0 16 16"><filter id="a" width="1" height="1" x="0" y="0"><feColorMatrix id="feColorMatrix2" in="SourceGraphic" type="matrix" values="0 0 0 0 1 0 0 0 0 1 0 0 0 0 1 0 0 0 1 0"/></filter><mask id="b"><g id="g7" filter="url(#a)"><path id="path5" fill-opacity=".3" d="m 0 0 h 16 v 16 h -16 z"/></g></mask><clipPath id="c"><path id="path10" d="m 0 0 h 800 v 800 h -800 z"/></clipPath><mask id="d"><g id="g15" filter="url(#a)"><path id="path13" fill-opacity=".35" d="m 0 0 h 16 v 16 h -16 z"/></g></mask><clipPath id="e"><path id="path18" d="m 0 0 h 800 v 800 h -800 z"/></clipPath><mask id="f"><g id="g23" filter="url(#a)"><path id="path21" fill-opacity=".35" d="m 0 0 h 16 v 16 h -16 z"/></g></mask><clipPath id="g"><path id="path26" d="m 0 0 h 800 v 800 h -800 z"/></clipPath><mask id="h"><g id="g31" filter="url(#a)"><path id="path29" fill-opacity=".35" d="m 0 0 h 16 v 16 h -16 z"/></g></mask><clipPath id="i"><path id="path34" d="m 0 0 h 800 v 800 h -800 z"/></clipPath><mask id="j"><g id="g39" filter="url(#a)"><path id="path37" fill-opacity=".35" d="m 0 0 h 16 v 16 h -16 z"/></g></mask><clipPath id="k"><path id="path42" d="m 0 0 h 800 v 800 h -800 z"/></clipPath><g id="g47" clip-path="url(#c)" mask="url(#b)" transform="matrix(1 0 0 1 -140 -600)"><path id="path45" fill="#2e3436" d="m 142.5 351 h 10.449219 c -1.183594 0.492188 -1.296875 2.457031 0 3 h -10.449219 z m 0 0"/></g><g id="g51" clip-path="url(#e)" mask="url(#d)" transform="matrix(1 0 0 1 -140 -600)"><path id="path49" fill="#2e3436" d="m 104 502 c 0 0.550781 -0.449219 1 -1 1 s -1 -0.449219 -1 -1 s 0.449219 -1 1 -1 s 1 0.449219 1 1 z m 0 0"/></g><g id="g55" clip-path="url(#g)" mask="url(#f)" transform="matrix(1 0 0 1 -140 -600)"><path id="path53" fill="#2e3436" fill-rule="evenodd" d="m 106 501 v 2 h 8 v -2 z m 0 0"/></g><g id="g59" clip-path="url(#i)" mask="url(#h)" transform="matrix(1 0 0 1 -140 -600)"><path id="path57" fill="#2e3436" d="m 104 514 c 0 0.550781 -0.449219 1 -1 1 s -1 -0.449219 -1 -1 s 0.449219 -1 1 -1 s 1 0.449219 1 1 z m 0 0"/></g><g id="g63" clip-path="url(#k)" mask="url(#j)" transform="matrix(1 0 0 1 -140 -600)"><path id="path61" fill="#2e3436" fill-rule="evenodd" d="m 106 513 v 2 h 8 v -2 z m 0 0"/></g><g id="g69" fill="#2e3436" fill-rule="evenodd"><path id="path65" d="m 9.015625,1 v 2 h 2 v 10 h -2 v 2 h 2 c 0.832031,0 1.523437,-0.5625 1.765625,-1.050781 C 13.027344,13.457031 13.011719,13 13.011719,13 V 9 h 1 C 14.558594,8.992188 15,8.546875 15,8 15,7.453125 14.558594,7.007812 14.011719,7 h -1 V 3 c 0,0 0.01563,-0.457031 -0.230469,-0.949219 C 12.539062,1.5625 11.847656,1 11.015625,1 Z"/><path id="path67" d="M 5,1 C 4.167969,1 3.476562,1.5625 3.230469,2.050781 2.984375,2.542969 3,3 3,3 V 7 H 2 C 1.453125,7.00781 1.015625,7.453125 1.015625,8 c 0,0.546875 0.4375,0.992188 0.984375,1 h 1 v 4 C 3,13 2.984375,13.457031 3.230469,13.949219 3.476562,14.4375 4.167969,15 5,15 H 7 V 13 H 5 V 3 H 7 V 1 Z"/></g></svg>