<svg xmlns="http://www.w3.org/2000/svg" xmlns:xlink="http://www.w3.org/1999/xlink" width="128" height="128" viewBox="0 0 128 128"><linearGradient id="a" x1="16" x2="128" y1="74" y2="74" gradientTransform="matrix(1 0 0 0.769237 -8 39.076706)" gradientUnits="userSpaceOnUse"><stop offset="0" stop-color="#63452c"/><stop offset=".036" stop-color="#865e3c"/><stop offset=".071" stop-color="#63452c"/><stop offset=".929" stop-color="#63452c"/><stop offset=".964" stop-color="#865e3c"/><stop offset="1" stop-color="#63452c"/></linearGradient><linearGradient id="b" x1="23" x2="23" y1="238" y2="222" gradientTransform="matrix(0 1.5 -1.5 0 369 0)" gradientUnits="userSpaceOnUse"><stop offset="0" stop-color="#2ec27e"/><stop offset=".5" stop-color="#8ff0a4"/><stop offset="1" stop-color="#2ec27e"/></linearGradient><radialGradient id="c" cx="24" cy="53" r="14" gradientUnits="userSpaceOnUse"><stop offset="0" stop-color="#26a269"/><stop offset=".7" stop-color="#26a269" stop-opacity=".478"/><stop offset="1" stop-color="#26a269" stop-opacity="0"/></radialGradient><linearGradient id="d" x1="15" x2="33" y1="58" y2="58" gradientUnits="userSpaceOnUse"><stop offset="0" stop-color="#2ec27e"/><stop offset=".5" stop-color="#57e389"/><stop offset="1" stop-color="#2ec27e"/></linearGradient><linearGradient id="e" x1="46" x2="46" y1="232" y2="228" gradientTransform="matrix(0 -1.1875 -2 0 484 143.5)" gradientUnits="userSpaceOnUse"><stop offset="0" stop-color="#9a9996"/><stop offset=".5" stop-color="#fff"/><stop offset="1" stop-color="#c0bfbc"/></linearGradient><clipPath id="f"><path d="m 20 10 h 8 v 25 h -8 z m 0 0"/></clipPath><clipPath id="g"><path d="m 24 10 c -6.628906 0 -12 5.371094 -12 12 v 22 c 0 2.210938 1.789062 4 4 4 c 1.105469 0 2 0.894531 2 2 v 7 c 0 1.105469 -0.894531 2 -2 2 c -2.210938 0 -4 1.789062 -4 4 v 2 h 24 v -2 c 0 -2.210938 -1.789062 -4 -4 -4 c -1.105469 0 -2 -0.894531 -2 -2 v -7 c 0 -1.105469 0.894531 -2 2 -2 c 2.210938 0 4 -1.789062 4 -4 v -22 c 0 -6.628906 -5.371094 -12 -12 -12 z m 0 0"/></clipPath><clipPath id="h"><path d="m 32 10 h 4 v 31 h -4 z m 0 0"/></clipPath><clipPath id="i"><path d="m 24 10 c -6.628906 0 -12 5.371094 -12 12 v 22 c 0 2.210938 1.789062 4 4 4 c 1.105469 0 2 0.894531 2 2 v 7 c 0 1.105469 -0.894531 2 -2 2 c -2.210938 0 -4 1.789062 -4 4 v 2 h 24 v -2 c 0 -2.210938 -1.789062 -4 -4 -4 c -1.105469 0 -2 -0.894531 -2 -2 v -7 c 0 -1.105469 0.894531 -2 2 -2 c 2.210938 0 4 -1.789062 4 -4 v -22 c 0 -6.628906 -5.371094 -12 -12 -12 z m 0 0"/></clipPath><clipPath id="j"><path d="m 12 10 h 4 v 31 h -4 z m 0 0"/></clipPath><clipPath id="k"><path d="m 24 10 c -6.628906 0 -12 5.371094 -12 12 v 22 c 0 2.210938 1.789062 4 4 4 c 1.105469 0 2 0.894531 2 2 v 7 c 0 1.105469 -0.894531 2 -2 2 c -2.210938 0 -4 1.789062 -4 4 v 2 h 24 v -2 c 0 -2.210938 -1.789062 -4 -4 -4 c -1.105469 0 -2 -0.894531 -2 -2 v -7 c 0 -1.105469 0.894531 -2 2 -2 c 2.210938 0 4 -1.789062 4 -4 v -22 c 0 -6.628906 -5.371094 -12 -12 -12 z m 0 0"/></clipPath><linearGradient id="l" gradientUnits="userSpaceOnUse"><stop offset="0" stop-color="#c0bfbc"/><stop offset=".5" stop-color="#deddda"/><stop offset="1" stop-color="#9a9996"/></linearGradient><linearGradient id="m" x1="81" x2="81" y1="47" y2="65" gradientTransform="matrix(1.5 0 0 1.555555 -62 -59.110809)" xlink:href="#l"/><linearGradient id="n" x1="92" x2="104" y1="244" y2="244" gradientTransform="matrix(0.833334 0 0 0.821429 9.333274 -143.428558)" xlink:href="#l"/><linearGradient id="o" x1="92" x2="104" y1="244" y2="244" gradientTransform="matrix(1.5 0 0 0.928571 -56 -148.571379)" gradientUnits="userSpaceOnUse"><stop offset="0" stop-color="#ff7800"/><stop offset=".25" stop-color="#ffa348"/><stop offset=".75" stop-color="#ff7800"/><stop offset="1" stop-color="#c64600"/></linearGradient><filter id="p" width="100%" height="100%" x="0%" y="0%"><feColorMatrix in="SourceGraphic" type="matrix" values="0 0 0 0 1 0 0 0 0 1 0 0 0 0 1 0 0 0 1 0"/></filter><mask id="q"><g filter="url(#p)"><rect width="128" height="128" fill-opacity=".4"/></g></mask><clipPath id="r"><rect width="192" height="152"/></clipPath><mask id="s"><g filter="url(#p)"><rect width="128" height="128" fill-opacity=".4"/></g></mask><clipPath id="t"><rect width="192" height="152"/></clipPath><mask id="u"><g filter="url(#p)"><rect width="128" height="128" fill-opacity=".4"/></g></mask><clipPath id="v"><rect width="192" height="152"/></clipPath><path fill="url(#a)" d="m 16 76 h 96 c 4.417969 0 8 3.582031 8 8 v 24 c 0 4.417969 -3.582031 8 -8 8 h -96 c -4.417969 0 -8 -3.582031 -8 -8 v -24 c 0 -4.417969 3.582031 -8 8 -8 z m 0 0"/><path fill="#865e3c" d="m 16 28 h 96 c 4.417969 0 8 3.582031 8 8 v 64 c 0 4.417969 -3.582031 8 -8 8 h -96 c -4.417969 0 -8 -3.582031 -8 -8 v -64 c 0 -4.417969 3.582031 -8 8 -8 z m 0 0"/><path fill="url(#b)" d="m 24 10 c -6.628906 0 -12 5.371094 -12 12 v 28 c 0 6.628906 5.371094 12 12 12 s 12 -5.371094 12 -12 v -28 c 0 -6.628906 -5.371094 -12 -12 -12 z m 0 0"/><path fill="url(#c)" d="m 36 50 c 0 6.628906 -5.371094 12 -12 12 s -12 -5.371094 -12 -12 s 5.371094 -12 12 -12 s 12 5.371094 12 12 z m 0 0"/><path fill="url(#d)" d="m 33 58 c 0 4.96875 -4.03125 9 -9 9 s -9 -4.03125 -9 -9 s 4.03125 -9 9 -9 s 9 4.03125 9 9 z m 0 0"/><path fill="#26a269" d="m 33 61 c 0 4.96875 -4.03125 9 -9 9 s -9 -4.03125 -9 -9 s 4.03125 -9 9 -9 s 9 4.03125 9 9 z m 0 0"/><path fill="url(#e)" d="m 28 92 v -30 c 0 -2.210938 -1.789062 -4 -4 -4 s -4 1.789062 -4 4 v 30 c 0 2.210938 1.789062 4 4 4 s 4 -1.789062 4 -4 z m 0 0"/><path fill="#c0bfbc" d="m 29.738281 89.964844 l -2.613281 9.570312 c -0.074219 0.273438 -0.320312 0.464844 -0.605469 0.464844 h -5.039062 c -0.285157 0 -0.53125 -0.191406 -0.605469 -0.464844 l -2.613281 -9.570312 c -0.0625 -0.230469 -0.011719 -0.476563 0.132812 -0.664063 c 0.144531 -0.191406 0.367188 -0.300781 0.605469 -0.300781 h 10 c 0.238281 0 0.460938 0.109375 0.605469 0.300781 c 0.144531 0.1875 0.195312 0.433594 0.132812 0.664063 z m 0 0"/><path fill="#deddda" d="m 29.710938 88.957031 l -2.574219 8.582031 c -0.082031 0.273438 -0.332031 0.460938 -0.617188 0.460938 h -5.039062 c -0.285157 0 -0.535157 -0.1875 -0.617188 -0.460938 l -2.574219 -8.582031 c -0.070312 -0.222656 -0.027343 -0.46875 0.113282 -0.65625 c 0.140625 -0.191406 0.363281 -0.300781 0.597656 -0.300781 h 10 c 0.234375 0 0.457031 0.109375 0.597656 0.300781 c 0.140625 0.1875 0.183594 0.433594 0.113282 0.65625 z m 0 0"/><g clip-path="url(#f)"><g clip-path="url(#g)"><path fill="#2ec27e" d="m 28 -12 v 43 c 0 2.210938 -1.789062 4 -4 4 s -4 -1.789062 -4 -4 v -43 c 0 -2.210938 1.789062 -4 4 -4 s 4 1.789062 4 4 z m 0 0"/></g></g><g clip-path="url(#h)"><g clip-path="url(#i)"><path fill="#26a269" d="m 40 -6 v 43 c 0 2.210938 -1.789062 4 -4 4 s -4 -1.789062 -4 -4 v -43 c 0 -2.210938 1.789062 -4 4 -4 s 4 1.789062 4 4 z m 0 0"/></g></g><g clip-path="url(#j)"><g clip-path="url(#k)"><path fill="#26a269" d="m 16 -6 v 43 c 0 2.210938 -1.789062 4 -4 4 s -4 -1.789062 -4 -4 v -43 c 0 -2.210938 1.789062 -4 4 -4 s 4 1.789062 4 4 z m 0 0"/></g></g><path fill="#9a9996" d="m 127.5 35 v -4 l -2.285156 -0.773438 l 0.089844 4.085938 z m 0 0"/><path fill="#9a9996" d="m 67 20 h 18 v 16 h -18 z m 0 0"/><path fill="url(#m)" d="m 55 14 h 12 c 1.65625 0 3 1.394531 3 3.113281 v 21.777344 c 0 1.71875 -1.34375 3.109375 -3 3.109375 h -12 c -1.65625 0 -3 -1.390625 -3 -3.109375 v -21.777344 c 0 -1.71875 1.34375 -3.113281 3 -3.113281 z m 0 0"/><path fill="#9a9996" d="m 79 16 h 24 c 1.65625 0 3 1.34375 3 3 v 18 c 0 1.65625 -1.34375 3 -3 3 h -24 c -1.65625 0 -3 -1.34375 -3 -3 v -18 c 0 -1.65625 1.34375 -3 3 -3 z m 0 0"/><path fill="#9a9996" d="m 101.5 30 c 10.5 0 18.5 0 23 6.5 l 3 -1.5 c -2.5 -10 -10.5 -15 -21.5 -15 h -7.5 z m 0 0"/><path fill="#c0bfbc" d="m 101.5 26 c 10.554688 0 18.5 0 23 6.5 l 3 -1.5 c -2.5 -10 -14.5 -15 -25.5 -15 h -3.5 z m 0 0"/><path fill="#c0bfbc" d="m 79 16 h 24 c 1.65625 0 3 1.304688 3 2.910156 v 10.179688 c 0 1.609375 -1.34375 2.910156 -3 2.910156 h -24 c -1.65625 0 -3 -1.300781 -3 -2.910156 v -10.179688 c 0 -1.605468 1.34375 -2.910156 3 -2.910156 z m 0 0"/><path fill="url(#n)" d="m 91 34 c 2.761719 0 5 2.238281 5 5 v 36 c 0 2.761719 -2.238281 5 -5 5 s -5 -2.238281 -5 -5 v -36 c 0 -2.761719 2.238281 -5 5 -5 z m 0 0"/><path fill="url(#o)" d="m 88 52 h 6 c 3.3125 0 6 2.6875 6 6 v 40 c 0 3.3125 -2.6875 6 -6 6 h -6 c -3.3125 0 -6 -2.6875 -6 -6 v -40 c 0 -3.3125 2.6875 -6 6 -6 z m 0 0"/><path fill="#c64600" d="m 87.25 93.5 h 7.5 c 2.898438 0 5.25 2.351562 5.25 5.25 s -2.351562 5.25 -5.25 5.25 h -7.5 c -2.898438 0 -5.25 -2.351562 -5.25 -5.25 s 2.351562 -5.25 5.25 -5.25 z m 0 0"/><g clip-path="url(#r)" mask="url(#q)" transform="matrix(1 0 0 1 -8 -16)"><path fill="#8f3200" d="m 96 96 h 6 c 0.550781 0 1 0.449219 1 1 s -0.449219 1 -1 1 h -6 c -0.550781 0 -1 -0.449219 -1 -1 s 0.449219 -1 1 -1 z m 0 0"/></g><g clip-path="url(#t)" mask="url(#s)" transform="matrix(1 0 0 1 -8 -16)"><path fill="#8f3200" d="m 96 100 h 6 c 0.550781 0 1 0.449219 1 1 s -0.449219 1 -1 1 h -6 c -0.550781 0 -1 -0.449219 -1 -1 s 0.449219 -1 1 -1 z m 0 0"/></g><g clip-path="url(#v)" mask="url(#u)" transform="matrix(1 0 0 1 -8 -16)"><path fill="#8f3200" d="m 96 104 h 6 c 0.550781 0 1 0.449219 1 1 s -0.449219 1 -1 1 h -6 c -0.550781 0 -1 -0.449219 -1 -1 s 0.449219 -1 1 -1 z m 0 0"/></g><path fill="#9a9996" d="m 72 64 c 0 8.835938 -7.164062 16 -16 16 s -16 -7.164062 -16 -16 s 7.164062 -16 16 -16 s 16 7.164062 16 16 z m 0 0"/><path fill="#deddda" d="m 72 62 c 0 8.835938 -7.164062 16 -16 16 s -16 -7.164062 -16 -16 s 7.164062 -16 16 -16 s 16 7.164062 16 16 z m 0 0"/><path fill="#9a9996" d="m 56 70 c -4.433594 0 -8 3.566406 -8 8 v 38 c 0 4.433594 3.566406 8 8 8 s 8 -3.566406 8 -8 v -38 c 0 -4.433594 -3.566406 -8 -8 -8 z m 0 42 c 1.65625 0 3 1.34375 3 3 s -1.34375 3 -3 3 s -3 -1.34375 -3 -3 s 1.34375 -3 3 -3 z m 0 0"/><path fill="#deddda" d="m 56 68 c -4.433594 0 -8 3.566406 -8 8 v 38 c 0 4.433594 3.566406 8 8 8 s 8 -3.566406 8 -8 v -38 c 0 -4.433594 -3.566406 -8 -8 -8 z m 0 42 c 1.65625 0 3 1.34375 3 3 s -1.34375 3 -3 3 s -3 -1.34375 -3 -3 s 1.34375 -3 3 -3 z m 0 0"/><path fill="#a7a6a4" d="m 56 76 c 2.210938 0 4 1.789062 4 4 v 18 c 0 2.210938 -1.789062 4 -4 4 s -4 -1.789062 -4 -4 v -18 c 0 -2.210938 1.789062 -4 4 -4 z m 0 0"/><path fill="#865e3c" d="m 50 45 h 12 v 17 l -6 3 l -6 -3 z m 0 0"/></svg>